<mxfile host="app.diagrams.net" modified="2021-05-10T10:05:45.512Z" agent="5.0 (X11; Linux x86_64) AppleWebKit/537.36 (KHTML, like Gecko) Chrome/90.0.4430.93 Safari/537.36" etag="fxel_enbT1zSC5QagmT8" version="14.6.11" type="github">
  <diagram id="C5RBs43oDa-KdzZeNtuy" name="Page-1">
    <mxGraphModel dx="868" dy="467" grid="1" gridSize="10" guides="1" tooltips="1" connect="1" arrows="1" fold="1" page="1" pageScale="1" pageWidth="827" pageHeight="1169" math="0" shadow="0">
      <root>
        <mxCell id="WIyWlLk6GJQsqaUBKTNV-0" />
        <mxCell id="WIyWlLk6GJQsqaUBKTNV-1" parent="WIyWlLk6GJQsqaUBKTNV-0" />
        <mxCell id="WIyWlLk6GJQsqaUBKTNV-2" value="" style="rounded=0;html=1;jettySize=auto;orthogonalLoop=1;fontSize=11;endArrow=block;endFill=0;endSize=8;strokeWidth=1;shadow=0;labelBackgroundColor=none;edgeStyle=orthogonalEdgeStyle;startArrow=none;" parent="WIyWlLk6GJQsqaUBKTNV-1" source="WIyWlLk6GJQsqaUBKTNV-6" edge="1">
          <mxGeometry relative="1" as="geometry">
            <mxPoint x="220" y="170" as="targetPoint" />
          </mxGeometry>
        </mxCell>
        <mxCell id="WIyWlLk6GJQsqaUBKTNV-3" value="Start" style="rounded=1;whiteSpace=wrap;html=1;fontSize=12;glass=0;strokeWidth=1;shadow=0;" parent="WIyWlLk6GJQsqaUBKTNV-1" vertex="1">
          <mxGeometry x="160" y="20" width="120" height="40" as="geometry" />
        </mxCell>
        <mxCell id="7P2VcUxaWJjeYJUgkRMQ-5" value="" style="edgeStyle=orthogonalEdgeStyle;rounded=0;orthogonalLoop=1;jettySize=auto;html=1;" edge="1" parent="WIyWlLk6GJQsqaUBKTNV-1" source="WIyWlLk6GJQsqaUBKTNV-6" target="7P2VcUxaWJjeYJUgkRMQ-4">
          <mxGeometry relative="1" as="geometry" />
        </mxCell>
        <mxCell id="7P2VcUxaWJjeYJUgkRMQ-13" value="" style="edgeStyle=orthogonalEdgeStyle;rounded=0;orthogonalLoop=1;jettySize=auto;html=1;" edge="1" parent="WIyWlLk6GJQsqaUBKTNV-1" source="WIyWlLk6GJQsqaUBKTNV-6" target="7P2VcUxaWJjeYJUgkRMQ-1">
          <mxGeometry relative="1" as="geometry" />
        </mxCell>
        <mxCell id="7P2VcUxaWJjeYJUgkRMQ-16" value="" style="edgeStyle=orthogonalEdgeStyle;rounded=0;orthogonalLoop=1;jettySize=auto;html=1;" edge="1" parent="WIyWlLk6GJQsqaUBKTNV-1" source="7P2VcUxaWJjeYJUgkRMQ-1" target="7P2VcUxaWJjeYJUgkRMQ-15">
          <mxGeometry relative="1" as="geometry" />
        </mxCell>
        <mxCell id="7P2VcUxaWJjeYJUgkRMQ-1" value="Input File&amp;nbsp;&lt;br&gt;conataining monty&lt;br&gt;code" style="shape=parallelogram;perimeter=parallelogramPerimeter;whiteSpace=wrap;html=1;fixedSize=1;" vertex="1" parent="WIyWlLk6GJQsqaUBKTNV-1">
          <mxGeometry x="160" y="230" width="120" height="60" as="geometry" />
        </mxCell>
        <mxCell id="7P2VcUxaWJjeYJUgkRMQ-11" value="" style="edgeStyle=orthogonalEdgeStyle;rounded=0;orthogonalLoop=1;jettySize=auto;html=1;entryX=0.629;entryY=0;entryDx=0;entryDy=0;entryPerimeter=0;" edge="1" parent="WIyWlLk6GJQsqaUBKTNV-1" source="7P2VcUxaWJjeYJUgkRMQ-4" target="7P2VcUxaWJjeYJUgkRMQ-12">
          <mxGeometry relative="1" as="geometry">
            <mxPoint x="585" y="200" as="targetPoint" />
            <Array as="points">
              <mxPoint x="720" y="140" />
              <mxPoint x="720" y="200" />
              <mxPoint x="718" y="200" />
            </Array>
          </mxGeometry>
        </mxCell>
        <mxCell id="7P2VcUxaWJjeYJUgkRMQ-4" value="&lt;span style=&quot;color: rgb(51 , 51 , 51) ; font-family: , sans-serif ; font-size: 14px ; text-align: left ; background-color: rgb(255 , 255 , 255)&quot;&gt;print the error message&amp;nbsp;&lt;/span&gt;&lt;code style=&quot;box-sizing: border-box ; font-family: &amp;#34;menlo&amp;#34; , &amp;#34;monaco&amp;#34; , &amp;#34;consolas&amp;#34; , &amp;#34;courier new&amp;#34; , monospace ; font-size: 12.6px ; padding: 2px 4px ; color: rgb(199 , 37 , 78) ; background-color: rgb(249 , 242 , 244) ; border-radius: 4px ; text-align: left&quot;&gt;USAGE: monty file&lt;/code&gt;&lt;span style=&quot;color: rgb(51 , 51 , 51) ; font-family: , sans-serif ; font-size: 14px ; text-align: left ; background-color: rgb(255 , 255 , 255)&quot;&gt;,&amp;nbsp; e status&amp;nbsp;&lt;/span&gt;&lt;code style=&quot;box-sizing: border-box ; font-family: &amp;#34;menlo&amp;#34; , &amp;#34;monaco&amp;#34; , &amp;#34;consolas&amp;#34; , &amp;#34;courier new&amp;#34; , monospace ; font-size: 12.6px ; padding: 2px 4px ; color: rgb(199 , 37 , 78) ; background-color: rgb(249 , 242 , 244) ; border-radius: 4px ; text-align: left&quot;&gt;EXIT_FAILURE&lt;/code&gt;" style="whiteSpace=wrap;html=1;shadow=0;strokeWidth=1;spacing=6;spacingTop=-4;" vertex="1" parent="WIyWlLk6GJQsqaUBKTNV-1">
          <mxGeometry x="350" y="100" width="150" height="80" as="geometry" />
        </mxCell>
        <mxCell id="7P2VcUxaWJjeYJUgkRMQ-6" value="false" style="text;html=1;align=center;verticalAlign=middle;resizable=0;points=[];autosize=1;strokeColor=none;" vertex="1" parent="WIyWlLk6GJQsqaUBKTNV-1">
          <mxGeometry x="280" y="120" width="40" height="20" as="geometry" />
        </mxCell>
        <mxCell id="7P2VcUxaWJjeYJUgkRMQ-12" value="exit with&amp;nbsp;&lt;span style=&quot;color: rgb(199 , 37 , 78) ; font-family: &amp;#34;menlo&amp;#34; , &amp;#34;monaco&amp;#34; , &amp;#34;consolas&amp;#34; , &amp;#34;courier new&amp;#34; , monospace ; font-size: 12.6px ; text-align: left ; background-color: rgb(249 , 242 , 244)&quot;&gt;EXIT_FAILURE&lt;/span&gt;&lt;br&gt;End" style="rounded=1;whiteSpace=wrap;html=1;" vertex="1" parent="WIyWlLk6GJQsqaUBKTNV-1">
          <mxGeometry x="630" y="340" width="140" height="80" as="geometry" />
        </mxCell>
        <mxCell id="7P2VcUxaWJjeYJUgkRMQ-14" value="True" style="text;html=1;align=center;verticalAlign=middle;resizable=0;points=[];autosize=1;strokeColor=none;" vertex="1" parent="WIyWlLk6GJQsqaUBKTNV-1">
          <mxGeometry x="220" y="200" width="40" height="20" as="geometry" />
        </mxCell>
        <mxCell id="7P2VcUxaWJjeYJUgkRMQ-18" value="" style="edgeStyle=orthogonalEdgeStyle;rounded=0;orthogonalLoop=1;jettySize=auto;html=1;" edge="1" parent="WIyWlLk6GJQsqaUBKTNV-1" source="7P2VcUxaWJjeYJUgkRMQ-15" target="7P2VcUxaWJjeYJUgkRMQ-17">
          <mxGeometry relative="1" as="geometry" />
        </mxCell>
        <mxCell id="7P2VcUxaWJjeYJUgkRMQ-15" value="File opens" style="rhombus;whiteSpace=wrap;html=1;" vertex="1" parent="WIyWlLk6GJQsqaUBKTNV-1">
          <mxGeometry x="180" y="340" width="80" height="80" as="geometry" />
        </mxCell>
        <mxCell id="7P2VcUxaWJjeYJUgkRMQ-41" style="edgeStyle=orthogonalEdgeStyle;rounded=0;orthogonalLoop=1;jettySize=auto;html=1;" edge="1" parent="WIyWlLk6GJQsqaUBKTNV-1" source="7P2VcUxaWJjeYJUgkRMQ-17">
          <mxGeometry relative="1" as="geometry">
            <mxPoint x="630" y="380" as="targetPoint" />
          </mxGeometry>
        </mxCell>
        <mxCell id="7P2VcUxaWJjeYJUgkRMQ-17" value="print&amp;nbsp;&lt;span style=&quot;color: rgb(51 , 51 , 51) ; font-family: , sans-serif ; font-size: 14px ; text-align: left ; background-color: rgb(255 , 255 , 255)&quot;&gt;&amp;nbsp;&lt;/span&gt;&lt;code style=&quot;box-sizing: border-box ; font-family: &amp;#34;menlo&amp;#34; , &amp;#34;monaco&amp;#34; , &amp;#34;consolas&amp;#34; , &amp;#34;courier new&amp;#34; , monospace ; font-size: 12.6px ; padding: 2px 4px ; color: rgb(199 , 37 , 78) ; background-color: rgb(249 , 242 , 244) ; border-radius: 4px ; text-align: left&quot;&gt;Error: Can&#39;t open file &amp;lt;file&amp;gt;&lt;/code&gt;" style="whiteSpace=wrap;html=1;" vertex="1" parent="WIyWlLk6GJQsqaUBKTNV-1">
          <mxGeometry x="330" y="350" width="120" height="60" as="geometry" />
        </mxCell>
        <mxCell id="7P2VcUxaWJjeYJUgkRMQ-20" value="" style="edgeStyle=orthogonalEdgeStyle;rounded=0;orthogonalLoop=1;jettySize=auto;html=1;exitX=0.5;exitY=1;exitDx=0;exitDy=0;" edge="1" parent="WIyWlLk6GJQsqaUBKTNV-1" source="7P2VcUxaWJjeYJUgkRMQ-15">
          <mxGeometry relative="1" as="geometry">
            <mxPoint x="230" y="380" as="sourcePoint" />
            <mxPoint x="220" y="570" as="targetPoint" />
          </mxGeometry>
        </mxCell>
        <mxCell id="7P2VcUxaWJjeYJUgkRMQ-21" value="True" style="text;html=1;align=center;verticalAlign=middle;resizable=0;points=[];autosize=1;strokeColor=none;" vertex="1" parent="WIyWlLk6GJQsqaUBKTNV-1">
          <mxGeometry x="220" y="440" width="40" height="20" as="geometry" />
        </mxCell>
        <mxCell id="7P2VcUxaWJjeYJUgkRMQ-24" value="" style="edgeStyle=orthogonalEdgeStyle;rounded=0;orthogonalLoop=1;jettySize=auto;html=1;" edge="1" parent="WIyWlLk6GJQsqaUBKTNV-1" source="7P2VcUxaWJjeYJUgkRMQ-22" target="7P2VcUxaWJjeYJUgkRMQ-23">
          <mxGeometry relative="1" as="geometry" />
        </mxCell>
        <mxCell id="7P2VcUxaWJjeYJUgkRMQ-22" value="Read lines in file" style="whiteSpace=wrap;html=1;" vertex="1" parent="WIyWlLk6GJQsqaUBKTNV-1">
          <mxGeometry x="160" y="480" width="120" height="60" as="geometry" />
        </mxCell>
        <mxCell id="7P2VcUxaWJjeYJUgkRMQ-26" value="" style="edgeStyle=orthogonalEdgeStyle;rounded=0;orthogonalLoop=1;jettySize=auto;html=1;" edge="1" parent="WIyWlLk6GJQsqaUBKTNV-1" source="7P2VcUxaWJjeYJUgkRMQ-23" target="7P2VcUxaWJjeYJUgkRMQ-25">
          <mxGeometry relative="1" as="geometry" />
        </mxCell>
        <mxCell id="7P2VcUxaWJjeYJUgkRMQ-30" value="" style="edgeStyle=orthogonalEdgeStyle;rounded=0;orthogonalLoop=1;jettySize=auto;html=1;" edge="1" parent="WIyWlLk6GJQsqaUBKTNV-1" source="7P2VcUxaWJjeYJUgkRMQ-23" target="7P2VcUxaWJjeYJUgkRMQ-29">
          <mxGeometry relative="1" as="geometry" />
        </mxCell>
        <mxCell id="7P2VcUxaWJjeYJUgkRMQ-23" value="Valid command" style="rhombus;whiteSpace=wrap;html=1;" vertex="1" parent="WIyWlLk6GJQsqaUBKTNV-1">
          <mxGeometry x="180" y="600" width="80" height="80" as="geometry" />
        </mxCell>
        <mxCell id="7P2VcUxaWJjeYJUgkRMQ-25" value="&lt;span style=&quot;color: rgb(199 , 37 , 78) ; font-family: &amp;#34;menlo&amp;#34; , &amp;#34;monaco&amp;#34; , &amp;#34;consolas&amp;#34; , &amp;#34;courier new&amp;#34; , monospace ; font-size: 12.6px ; text-align: left ; background-color: rgb(249 , 242 , 244)&quot;&gt;L&amp;lt;line_number&amp;gt;: unknown instruction &amp;lt;opcode&amp;gt;&lt;/span&gt;" style="whiteSpace=wrap;html=1;" vertex="1" parent="WIyWlLk6GJQsqaUBKTNV-1">
          <mxGeometry x="330" y="605" width="120" height="70" as="geometry" />
        </mxCell>
        <mxCell id="7P2VcUxaWJjeYJUgkRMQ-27" value="" style="endArrow=classic;html=1;exitX=1;exitY=0.5;exitDx=0;exitDy=0;entryX=0.55;entryY=1;entryDx=0;entryDy=0;entryPerimeter=0;" edge="1" parent="WIyWlLk6GJQsqaUBKTNV-1" source="7P2VcUxaWJjeYJUgkRMQ-25" target="7P2VcUxaWJjeYJUgkRMQ-12">
          <mxGeometry width="50" height="50" relative="1" as="geometry">
            <mxPoint x="390" y="640" as="sourcePoint" />
            <mxPoint x="440" y="590" as="targetPoint" />
            <Array as="points">
              <mxPoint x="700" y="640" />
            </Array>
          </mxGeometry>
        </mxCell>
        <mxCell id="7P2VcUxaWJjeYJUgkRMQ-28" value="false" style="text;html=1;align=center;verticalAlign=middle;resizable=0;points=[];autosize=1;strokeColor=none;" vertex="1" parent="WIyWlLk6GJQsqaUBKTNV-1">
          <mxGeometry x="270" y="620" width="40" height="20" as="geometry" />
        </mxCell>
        <mxCell id="7P2VcUxaWJjeYJUgkRMQ-33" value="" style="edgeStyle=orthogonalEdgeStyle;rounded=0;orthogonalLoop=1;jettySize=auto;html=1;" edge="1" parent="WIyWlLk6GJQsqaUBKTNV-1" source="7P2VcUxaWJjeYJUgkRMQ-29" target="7P2VcUxaWJjeYJUgkRMQ-32">
          <mxGeometry relative="1" as="geometry" />
        </mxCell>
        <mxCell id="7P2VcUxaWJjeYJUgkRMQ-29" value="Execute every line if code correctly" style="whiteSpace=wrap;html=1;" vertex="1" parent="WIyWlLk6GJQsqaUBKTNV-1">
          <mxGeometry x="160" y="720" width="120" height="70" as="geometry" />
        </mxCell>
        <mxCell id="7P2VcUxaWJjeYJUgkRMQ-31" value="True" style="text;html=1;align=center;verticalAlign=middle;resizable=0;points=[];autosize=1;strokeColor=none;" vertex="1" parent="WIyWlLk6GJQsqaUBKTNV-1">
          <mxGeometry x="220" y="690" width="40" height="20" as="geometry" />
        </mxCell>
        <mxCell id="7P2VcUxaWJjeYJUgkRMQ-35" value="" style="edgeStyle=orthogonalEdgeStyle;rounded=0;orthogonalLoop=1;jettySize=auto;html=1;" edge="1" parent="WIyWlLk6GJQsqaUBKTNV-1" source="7P2VcUxaWJjeYJUgkRMQ-32" target="7P2VcUxaWJjeYJUgkRMQ-34">
          <mxGeometry relative="1" as="geometry" />
        </mxCell>
        <mxCell id="7P2VcUxaWJjeYJUgkRMQ-45" style="edgeStyle=orthogonalEdgeStyle;rounded=0;orthogonalLoop=1;jettySize=auto;html=1;exitX=0.5;exitY=1;exitDx=0;exitDy=0;" edge="1" parent="WIyWlLk6GJQsqaUBKTNV-1" source="7P2VcUxaWJjeYJUgkRMQ-32" target="7P2VcUxaWJjeYJUgkRMQ-44">
          <mxGeometry relative="1" as="geometry" />
        </mxCell>
        <mxCell id="7P2VcUxaWJjeYJUgkRMQ-32" value="code runs succesfuly&amp;nbsp;&lt;br&gt;without maloc &lt;br&gt;error" style="rhombus;whiteSpace=wrap;html=1;" vertex="1" parent="WIyWlLk6GJQsqaUBKTNV-1">
          <mxGeometry x="165" y="840" width="110" height="105" as="geometry" />
        </mxCell>
        <mxCell id="7P2VcUxaWJjeYJUgkRMQ-37" style="edgeStyle=orthogonalEdgeStyle;rounded=0;orthogonalLoop=1;jettySize=auto;html=1;entryX=0.829;entryY=1.05;entryDx=0;entryDy=0;entryPerimeter=0;" edge="1" parent="WIyWlLk6GJQsqaUBKTNV-1" source="7P2VcUxaWJjeYJUgkRMQ-34" target="7P2VcUxaWJjeYJUgkRMQ-12">
          <mxGeometry relative="1" as="geometry" />
        </mxCell>
        <mxCell id="7P2VcUxaWJjeYJUgkRMQ-34" value="print&amp;nbsp;&lt;span style=&quot;color: rgb(199 , 37 , 78) ; font-family: &amp;#34;menlo&amp;#34; , &amp;#34;monaco&amp;#34; , &amp;#34;consolas&amp;#34; , &amp;#34;courier new&amp;#34; , monospace ; font-size: 12.6px ; text-align: left ; background-color: rgb(249 , 242 , 244)&quot;&gt;Error: malloc failed&lt;/span&gt;" style="whiteSpace=wrap;html=1;" vertex="1" parent="WIyWlLk6GJQsqaUBKTNV-1">
          <mxGeometry x="340" y="862.5" width="120" height="60" as="geometry" />
        </mxCell>
        <mxCell id="7P2VcUxaWJjeYJUgkRMQ-36" value="False" style="text;html=1;align=center;verticalAlign=middle;resizable=0;points=[];autosize=1;strokeColor=none;" vertex="1" parent="WIyWlLk6GJQsqaUBKTNV-1">
          <mxGeometry x="280" y="870" width="40" height="20" as="geometry" />
        </mxCell>
        <mxCell id="WIyWlLk6GJQsqaUBKTNV-6" value="User provides monty file" style="rhombus;whiteSpace=wrap;html=1;shadow=0;fontFamily=Helvetica;fontSize=12;align=center;strokeWidth=1;spacing=6;spacingTop=-4;" parent="WIyWlLk6GJQsqaUBKTNV-1" vertex="1">
          <mxGeometry x="170" y="100" width="100" height="80" as="geometry" />
        </mxCell>
        <mxCell id="7P2VcUxaWJjeYJUgkRMQ-40" value="" style="rounded=0;html=1;jettySize=auto;orthogonalLoop=1;fontSize=11;endArrow=none;endFill=0;endSize=8;strokeWidth=1;shadow=0;labelBackgroundColor=none;edgeStyle=orthogonalEdgeStyle;" edge="1" parent="WIyWlLk6GJQsqaUBKTNV-1" source="WIyWlLk6GJQsqaUBKTNV-3" target="WIyWlLk6GJQsqaUBKTNV-6">
          <mxGeometry relative="1" as="geometry">
            <mxPoint x="220" y="60" as="sourcePoint" />
            <mxPoint x="220" y="170" as="targetPoint" />
          </mxGeometry>
        </mxCell>
        <mxCell id="7P2VcUxaWJjeYJUgkRMQ-44" value="End" style="rounded=1;whiteSpace=wrap;html=1;" vertex="1" parent="WIyWlLk6GJQsqaUBKTNV-1">
          <mxGeometry x="160" y="1040" width="120" height="60" as="geometry" />
        </mxCell>
      </root>
    </mxGraphModel>
  </diagram>
</mxfile>
